<svg xmlns="http://www.w3.org/2000/svg" xmlns:xlink="http://www.w3.org/1999/xlink" width="6434" zoomAndPan="magnify" viewBox="0 0 4825.5 2913.749913" height="3885" preserveAspectRatio="xMidYMid meet" version="1.0"><defs><clipPath id="34172a4664"><path d="M 272 291.140625 L 2178 291.140625 L 2178 2706 L 272 2706 Z M 272 291.140625 " clip-rule="nonzero"/></clipPath><clipPath id="939bdb0e5f"><path d="M 779.199219 2225.546875 C 777.640625 2228.492188 776.363281 2230.882812 775.65625 2232.28125 C 882.898438 2153.839844 990.144531 2075.539062 1097.386719 1997.234375 C 1016.8125 2092.375 999.929688 2112.582031 933.828125 2191.59375 C 834.671875 2310.304688 769.128906 2430.847656 706.285156 2548.300781 C 663.078125 2600.742188 619.875 2653.1875 576.667969 2705.632812 C 577.167969 2592.605469 561.117188 2380.785156 431.613281 2166.386719 C 380.691406 2082.082031 323.65625 2016.292969 272.476562 1966.542969 C 316.871094 1929.113281 364.402344 1885.589844 418.320312 1830.949219 C 475.34375 1773.132812 547.976562 1692.726562 623.585938 1588.464844 C 605.714844 1635.195312 587.691406 1681.921875 569.679688 1728.652344 L 686.285156 1587.0625 C 731.113281 1604.742188 775.800781 1622.421875 820.625 1640.105469 C 757.78125 1751.382812 694.9375 1862.523438 632.238281 1973.660156 C 713.945312 1866.449219 795.660156 1759.242188 877.367188 1652.03125 C 882.898438 1654.140625 990.425781 1693.851562 1077.246094 1626.914062 C 1136.117188 1581.589844 1147.886719 1516.335938 1150.300781 1500.339844 C 1204.347656 1497.953125 1252.4375 1483.640625 1284.925781 1438.171875 C 1316.839844 1393.410156 1320.953125 1344.574219 1301.097656 1294.058594 C 1311.027344 1286.484375 1319.675781 1280.445312 1327.90625 1273.855469 C 1364.785156 1243.960938 1383.515625 1204.808594 1386.070312 1158.222656 C 1388.195312 1121.316406 1376.140625 1087.496094 1358.121094 1055.640625 C 1353.4375 1047.222656 1348.472656 1038.804688 1343.652344 1030.242188 C 1413.019531 981.550781 1449.050781 895.667969 1420.960938 813.859375 C 1393.019531 732.332031 1312.300781 677.601562 1249.742188 623.296875 C 1234.421875 609.96875 1219.957031 595.648438 1205.058594 581.757812 C 1199.804688 575.308594 1194.558594 568.988281 1189.171875 562.53125 C 1196.40625 558.605469 1200.234375 555.65625 1204.488281 554.394531 C 1235.699219 544.714844 1266.765625 534.609375 1298.257812 525.90625 C 1325.070312 518.472656 1352.445312 513.5625 1379.117188 505.980469 C 1442.101562 488.160156 1487.070312 449.714844 1509.34375 388.109375 C 1519.414062 360.183594 1533.738281 336.050781 1557.148438 316.121094 C 1544.664062 319.066406 1532.179688 322.015625 1518.277344 325.242188 C 1518.5625 308.402344 1530.050781 304.191406 1540.121094 300.824219 C 1577.007812 288.617188 1614.175781 286.652344 1650.773438 302.507812 C 1676.164062 313.449219 1695.171875 330.011719 1706.949219 350.644531 C 1723.402344 379.546875 1720.566406 408.878906 1719.289062 423.472656 C 1710.066406 523.242188 1581.402344 723.484375 1571.1875 739.207031 C 1639.425781 655.570312 1707.800781 572.078125 1776.03125 488.441406 C 1778.726562 485.214844 1820.859375 504.300781 1825.398438 506.261719 C 1842.28125 513.703125 1859.304688 522.398438 1873.347656 534.609375 C 1917.746094 572.777344 1910.9375 645.609375 1900.015625 696.6875 C 1888.101562 752.816406 1861.710938 805.019531 1834.335938 855.257812 C 1811.925781 896.234375 1777.449219 960.363281 1735.175781 1043.996094 C 1810.21875 935.941406 1885.261719 827.894531 1960.300781 719.839844 C 1990.519531 731.769531 2016.339844 747.90625 2035.203125 772.601562 L 2035.203125 772.742188 C 2035.488281 772.886719 2035.488281 773.164062 2035.773438 773.304688 C 2037.617188 775.832031 2039.886719 779.058594 2042.441406 783.128906 C 2042.582031 783.546875 2042.863281 783.828125 2043.003906 784.109375 C 2044 785.65625 2044.851562 787.195312 2045.699219 788.746094 C 2047.40625 791.6875 2048.824219 794.496094 2050.101562 797.441406 C 2078.042969 855.957031 2060.3125 921.066406 2038.039062 997.96875 C 2010.097656 1094.09375 1989.386719 1165.660156 1974.917969 1212.527344 L 1974.917969 1224.316406 C 1985.980469 1202.984375 1995.339844 1184.886719 2004.425781 1166.785156 C 2039.035156 1098.582031 2085.992188 1036.277344 2106.417969 959.796875 C 2135.925781 978.042969 2158.765625 1000.914062 2170.109375 1032.628906 C 2175.074219 1046.238281 2178.195312 1061.394531 2177.769531 1075.710938 C 2176.917969 1107.425781 2170.820312 1138.714844 2160.605469 1168.886719 C 2150.25 1199.058594 2144.4375 1230.210938 2142.019531 1261.925781 C 2142.019531 1261.925781 2133.65625 1292.375 2121.453125 1323.386719 C 2058.328125 1484.34375 1863.699219 1605.164062 1863.699219 1605.164062 C 1454.863281 1858.875 966.738281 1875.292969 779.199219 2225.546875 Z M 779.199219 2225.546875 " clip-rule="nonzero"/></clipPath><clipPath id="63228f8718"><path d="M 0.308594 0.140625 L 1906 0.140625 L 1906 2414.816406 L 0.308594 2414.816406 Z M 0.308594 0.140625 " clip-rule="nonzero"/></clipPath><clipPath id="791bca249c"><path d="M 507.199219 1934.546875 C 505.640625 1937.492188 504.363281 1939.882812 503.65625 1941.28125 C 610.898438 1862.839844 718.144531 1784.539062 825.386719 1706.234375 C 744.8125 1801.375 727.929688 1821.582031 661.828125 1900.59375 C 562.671875 2019.304688 497.128906 2139.847656 434.285156 2257.300781 C 391.078125 2309.742188 347.875 2362.1875 304.667969 2414.632812 C 305.167969 2301.605469 289.117188 2089.785156 159.613281 1875.386719 C 108.691406 1791.082031 51.65625 1725.292969 0.476562 1675.542969 C 44.871094 1638.113281 92.402344 1594.589844 146.320312 1539.949219 C 203.34375 1482.132812 275.976562 1401.726562 351.585938 1297.464844 C 333.714844 1344.195312 315.691406 1390.921875 297.679688 1437.652344 L 414.285156 1296.0625 C 459.113281 1313.742188 503.800781 1331.421875 548.625 1349.105469 C 485.78125 1460.382812 422.9375 1571.523438 360.238281 1682.660156 C 441.945312 1575.449219 523.660156 1468.242188 605.367188 1361.03125 C 610.898438 1363.140625 718.425781 1402.851562 805.246094 1335.914062 C 864.117188 1290.589844 875.886719 1225.335938 878.300781 1209.339844 C 932.347656 1206.953125 980.4375 1192.640625 1012.925781 1147.171875 C 1044.839844 1102.410156 1048.953125 1053.574219 1029.097656 1003.058594 C 1039.027344 995.484375 1047.675781 989.445312 1055.90625 982.855469 C 1092.785156 952.960938 1111.515625 913.808594 1114.070312 867.222656 C 1116.195312 830.316406 1104.140625 796.496094 1086.121094 764.640625 C 1081.4375 756.222656 1076.472656 747.804688 1071.652344 739.242188 C 1141.019531 690.550781 1177.050781 604.667969 1148.960938 522.859375 C 1121.019531 441.332031 1040.300781 386.601562 977.742188 332.296875 C 962.421875 318.96875 947.957031 304.648438 933.058594 290.757812 C 927.804688 284.308594 922.558594 277.988281 917.171875 271.53125 C 924.40625 267.605469 928.234375 264.65625 932.488281 263.394531 C 963.699219 253.714844 994.765625 243.609375 1026.257812 234.90625 C 1053.070312 227.472656 1080.445312 222.5625 1107.117188 214.980469 C 1170.101562 197.160156 1215.070312 158.714844 1237.34375 97.109375 C 1247.414062 69.183594 1261.738281 45.050781 1285.148438 25.121094 C 1272.664062 28.066406 1260.179688 31.015625 1246.277344 34.242188 C 1246.5625 17.402344 1258.050781 13.191406 1268.121094 9.824219 C 1305.007812 -2.382812 1342.175781 -4.347656 1378.773438 11.507812 C 1404.164062 22.449219 1423.171875 39.011719 1434.949219 59.644531 C 1451.402344 88.546875 1448.566406 117.878906 1447.289062 132.472656 C 1438.066406 232.242188 1309.402344 432.484375 1299.1875 448.207031 C 1367.425781 364.570312 1435.800781 281.078125 1504.03125 197.441406 C 1506.726562 194.214844 1548.859375 213.300781 1553.398438 215.261719 C 1570.28125 222.703125 1587.304688 231.398438 1601.347656 243.609375 C 1645.746094 281.777344 1638.9375 354.609375 1628.015625 405.6875 C 1616.101562 461.816406 1589.710938 514.019531 1562.335938 564.257812 C 1539.925781 605.234375 1505.449219 669.363281 1463.175781 752.996094 C 1538.21875 644.941406 1613.261719 536.894531 1688.300781 428.839844 C 1718.519531 440.769531 1744.339844 456.90625 1763.203125 481.601562 L 1763.203125 481.742188 C 1763.488281 481.886719 1763.488281 482.164062 1763.773438 482.304688 C 1765.617188 484.832031 1767.886719 488.058594 1770.441406 492.128906 C 1770.582031 492.546875 1770.863281 492.828125 1771.003906 493.109375 C 1772 494.65625 1772.851562 496.195312 1773.699219 497.746094 C 1775.40625 500.6875 1776.824219 503.496094 1778.101562 506.441406 C 1806.042969 564.957031 1788.3125 630.066406 1766.039062 706.96875 C 1738.097656 803.09375 1717.386719 874.660156 1702.917969 921.527344 L 1702.917969 933.316406 C 1713.980469 911.984375 1723.339844 893.886719 1732.425781 875.785156 C 1767.035156 807.582031 1813.992188 745.277344 1834.417969 668.796875 C 1863.925781 687.042969 1886.765625 709.914062 1898.109375 741.628906 C 1903.074219 755.238281 1906.195312 770.394531 1905.769531 784.710938 C 1904.917969 816.425781 1898.820312 847.714844 1888.605469 877.886719 C 1878.25 908.058594 1872.4375 939.210938 1870.019531 970.925781 C 1870.019531 970.925781 1861.65625 1001.375 1849.453125 1032.386719 C 1786.328125 1193.34375 1591.699219 1314.164062 1591.699219 1314.164062 C 1182.863281 1567.875 694.738281 1584.292969 507.199219 1934.546875 Z M 507.199219 1934.546875 " clip-rule="nonzero"/></clipPath><clipPath id="93b7381490"><rect x="0" width="1906" y="0" height="2415"/></clipPath><clipPath id="2b9ea45805"><path d="M 446 1131 L 1067.527344 1131 L 1067.527344 1534 L 446 1534 Z M 446 1131 " clip-rule="nonzero"/></clipPath><clipPath id="f9b65b4151"><path d="M 527.652344 1338.371094 C 521.410156 1350.023438 517.152344 1362.515625 511.191406 1376.832031 C 492.039062 1357.460938 476.003906 1338.371094 467.917969 1313.53125 C 459.546875 1288.265625 466.640625 1263.5625 467.917969 1237.597656 C 465.792969 1243.355469 463.378906 1248.96875 461.675781 1254.863281 C 459.832031 1260.757812 458.558594 1266.929688 456.851562 1273.386719 C 429.609375 1243.074219 460.539062 1160.96875 510.339844 1131.210938 C 524.671875 1135 535.3125 1145.808594 545.953125 1155.636719 C 566.8125 1174.722656 586.816406 1194.933594 606.964844 1214.859375 C 668.828125 1276.058594 741.898438 1320.269531 822.910156 1351.707031 C 866.046875 1368.546875 910.03125 1382.867188 953.160156 1399.289062 C 979.695312 1409.394531 1006.511719 1419.355469 1031.195312 1432.832031 C 1064.964844 1451.359375 1075.464844 1486.726562 1060.566406 1519.988281 C 1059.007812 1523.355469 1055.742188 1525.886719 1053.1875 1528.832031 C 1054.464844 1518.304688 1055.601562 1507.78125 1057.019531 1495.570312 C 1047.230469 1509.601562 1039 1521.53125 1030.914062 1533.183594 C 1000.976562 1535.148438 975.152344 1528.132812 951.316406 1514.65625 C 945.074219 1511.148438 940.105469 1503.847656 936.847656 1497.253906 C 927.90625 1478.726562 934.148438 1463.988281 953.445312 1456.410156 C 969.335938 1450.234375 985.792969 1451.921875 1001.828125 1455.570312 C 1015.449219 1458.65625 1028.640625 1463.847656 1043.824219 1468.761719 C 1040.5625 1458.515625 1033.46875 1453.464844 1025.664062 1449.394531 C 1000.125 1436.199219 972.601562 1432.832031 944.648438 1436.898438 C 915.988281 1440.972656 893.710938 1467.917969 890.449219 1499.777344 C 889.882812 1505.25 890.304688 1510.726562 890.304688 1517.746094 C 855.117188 1517.179688 822.058594 1514.9375 789.710938 1506.234375 C 771.410156 1501.324219 763.464844 1488.269531 761.902344 1470.445312 C 760.199219 1451.5 763.746094 1433.957031 777.652344 1419.21875 C 746.582031 1438.585938 722.882812 1465.535156 696.492188 1493.042969 C 684.292969 1488.691406 671.523438 1484.621094 659.320312 1479.710938 C 629.382812 1467.636719 603.277344 1449.671875 577.59375 1430.304688 C 546.382812 1406.585938 539.289062 1376.125 545.386719 1340.335938 C 547.375 1328.6875 549.785156 1317.039062 549.21875 1303.988281 C 541.839844 1315.355469 533.894531 1326.441406 527.652344 1338.371094 Z M 527.652344 1338.371094 " clip-rule="nonzero"/></clipPath><clipPath id="3d4f307270"><path d="M 0.53125 0.101562 L 621.527344 0.101562 L 621.527344 402.539062 L 0.53125 402.539062 Z M 0.53125 0.101562 " clip-rule="nonzero"/></clipPath><clipPath id="9a3910461a"><path d="M 81.652344 207.371094 C 75.410156 219.023438 71.152344 231.515625 65.191406 245.832031 C 46.039062 226.460938 30.003906 207.371094 21.917969 182.53125 C 13.546875 157.265625 20.640625 132.5625 21.917969 106.597656 C 19.792969 112.355469 17.378906 117.96875 15.675781 123.863281 C 13.832031 129.757812 12.558594 135.929688 10.851562 142.386719 C -16.390625 112.074219 14.539062 29.96875 64.339844 0.210938 C 78.671875 4 89.3125 14.808594 99.953125 24.636719 C 120.8125 43.722656 140.816406 63.933594 160.964844 83.859375 C 222.828125 145.058594 295.898438 189.269531 376.910156 220.707031 C 420.046875 237.546875 464.03125 251.867188 507.160156 268.289062 C 533.695312 278.394531 560.511719 288.355469 585.195312 301.832031 C 618.964844 320.359375 629.464844 355.726562 614.566406 388.988281 C 613.007812 392.355469 609.742188 394.886719 607.1875 397.832031 C 608.464844 387.304688 609.601562 376.78125 611.019531 364.570312 C 601.230469 378.601562 593 390.53125 584.914062 402.183594 C 554.976562 404.148438 529.152344 397.132812 505.316406 383.65625 C 499.074219 380.148438 494.105469 372.847656 490.847656 366.253906 C 481.90625 347.726562 488.148438 332.988281 507.445312 325.410156 C 523.335938 319.234375 539.792969 320.921875 555.828125 324.570312 C 569.449219 327.65625 582.640625 332.847656 597.824219 337.761719 C 594.5625 327.515625 587.46875 322.464844 579.664062 318.394531 C 554.125 305.199219 526.601562 301.832031 498.648438 305.898438 C 469.988281 309.972656 447.710938 336.917969 444.449219 368.777344 C 443.882812 374.25 444.304688 379.726562 444.304688 386.746094 C 409.117188 386.179688 376.058594 383.9375 343.710938 375.234375 C 325.410156 370.324219 317.464844 357.269531 315.902344 339.445312 C 314.199219 320.5 317.746094 302.957031 331.652344 288.21875 C 300.582031 307.585938 276.882812 334.535156 250.492188 362.042969 C 238.292969 357.691406 225.523438 353.621094 213.320312 348.710938 C 183.382812 336.636719 157.277344 318.671875 131.59375 299.304688 C 100.382812 275.585938 93.289062 245.125 99.386719 209.335938 C 101.375 197.6875 103.785156 186.039062 103.21875 172.988281 C 95.839844 184.355469 87.894531 195.441406 81.652344 207.371094 Z M 81.652344 207.371094 " clip-rule="nonzero"/></clipPath><clipPath id="12e4775ca5"><rect x="0" width="622" y="0" height="403"/></clipPath><clipPath id="dded125d10"><path d="M 855.382812 370.019531 L 1363.695312 370.019531 L 1363.695312 946 L 855.382812 946 Z M 855.382812 370.019531 " clip-rule="nonzero"/></clipPath><clipPath id="2607251474"><path d="M 1073.410156 495.167969 C 1092.5625 530.117188 1116.542969 561.550781 1144.492188 589.761719 C 1184.785156 630.601562 1227.066406 669.480469 1268.070312 709.621094 C 1286.652344 727.863281 1304.957031 746.667969 1322.546875 766.039062 C 1339.003906 783.859375 1351.347656 804.492188 1358.160156 827.933594 C 1360.855469 837.335938 1363.546875 847.160156 1363.265625 856.839844 C 1362.277344 900.910156 1307.652344 949.191406 1263.242188 945.820312 C 1259.695312 945.542969 1256.007812 945.542969 1252.746094 944.417969 C 1226.921875 935.859375 1205.214844 920.839844 1186.058594 901.753906 C 1208.335938 911.855469 1230.328125 923.226562 1253.167969 931.785156 C 1284.097656 943.578125 1319.851562 929.824219 1336.023438 901.472656 C 1337.726562 898.664062 1338.296875 895.15625 1337.304688 889.964844 C 1333.328125 893.894531 1329.5 897.960938 1325.386719 901.894531 C 1308.503906 918.171875 1294.738281 920.417969 1276.296875 906.667969 C 1253.027344 889.261719 1229.761719 871.574219 1209.183594 851.230469 C 1188.332031 830.597656 1196.984375 798.601562 1224.367188 787.085938 C 1236.003906 782.316406 1247.921875 783.578125 1259.695312 787.652344 C 1287.789062 797.335938 1312.050781 812.914062 1334.464844 831.71875 C 1337.585938 834.53125 1340.566406 837.335938 1346.523438 838.316406 C 1343.117188 832.84375 1340.421875 826.667969 1336.3125 821.753906 C 1318.152344 800.703125 1297.574219 782.179688 1272.609375 769.40625 C 1247.210938 756.492188 1221.105469 755.089844 1194.433594 766.878906 C 1170.738281 777.261719 1154.988281 793.824219 1149.882812 819.511719 C 1149.171875 822.738281 1147.328125 825.828125 1145.769531 829.613281 C 1142.222656 828.351562 1139.242188 827.933594 1137.113281 826.386719 C 1110.863281 807.160156 1084.476562 788.074219 1058.515625 768.421875 C 1043.898438 757.195312 1041.488281 741.898438 1045.605469 724.632812 C 1050.570312 703.863281 1062.203125 687.726562 1078.234375 673.550781 C 1048.15625 684.074219 1020.492188 698.671875 992.824219 717.476562 C 986.296875 713.40625 979.488281 710.039062 973.53125 705.269531 C 926.566406 667.230469 889.253906 621.617188 865.558594 565.898438 C 864.710938 563.9375 863.574219 561.972656 863.289062 560.007812 C 855.628906 516.359375 846.976562 472.570312 871.945312 431.3125 C 908.832031 370.398438 989.277344 352.011719 1056.8125 389.207031 C 1056.8125 396.222656 1057.238281 403.945312 1056.667969 411.523438 C 1054.539062 440.851562 1058.941406 468.78125 1073.410156 495.167969 Z M 1073.410156 495.167969 " clip-rule="nonzero"/></clipPath><clipPath id="21953d9250"><path d="M 0.382812 0.0195312 L 508.695312 0.0195312 L 508.695312 576 L 0.382812 576 Z M 0.382812 0.0195312 " clip-rule="nonzero"/></clipPath><clipPath id="99afe8ad24"><path d="M 218.410156 125.167969 C 237.5625 160.117188 261.542969 191.550781 289.492188 219.761719 C 329.785156 260.601562 372.066406 299.480469 413.070312 339.621094 C 431.652344 357.863281 449.957031 376.667969 467.546875 396.039062 C 484.003906 413.859375 496.347656 434.492188 503.160156 457.933594 C 505.855469 467.335938 508.546875 477.160156 508.265625 486.839844 C 507.277344 530.910156 452.652344 579.191406 408.242188 575.820312 C 404.695312 575.542969 401.007812 575.542969 397.746094 574.417969 C 371.921875 565.859375 350.214844 550.839844 331.058594 531.753906 C 353.335938 541.855469 375.328125 553.226562 398.167969 561.785156 C 429.097656 573.578125 464.851562 559.824219 481.023438 531.472656 C 482.726562 528.664062 483.296875 525.15625 482.304688 519.964844 C 478.328125 523.894531 474.5 527.960938 470.386719 531.894531 C 453.503906 548.171875 439.738281 550.417969 421.296875 536.667969 C 398.027344 519.261719 374.761719 501.574219 354.183594 481.230469 C 333.332031 460.597656 341.984375 428.601562 369.367188 417.085938 C 381.003906 412.316406 392.921875 413.578125 404.695312 417.652344 C 432.789062 427.335938 457.050781 442.914062 479.464844 461.71875 C 482.585938 464.53125 485.566406 467.335938 491.523438 468.316406 C 488.117188 462.84375 485.421875 456.667969 481.3125 451.753906 C 463.152344 430.703125 442.574219 412.179688 417.609375 399.40625 C 392.210938 386.492188 366.105469 385.089844 339.433594 396.878906 C 315.738281 407.261719 299.988281 423.824219 294.882812 449.511719 C 294.171875 452.738281 292.328125 455.828125 290.769531 459.613281 C 287.222656 458.351562 284.242188 457.933594 282.113281 456.386719 C 255.863281 437.160156 229.476562 418.074219 203.515625 398.421875 C 188.898438 387.195312 186.488281 371.898438 190.605469 354.632812 C 195.570312 333.863281 207.203125 317.726562 223.234375 303.550781 C 193.15625 314.074219 165.492188 328.671875 137.824219 347.476562 C 131.296875 343.40625 124.488281 340.039062 118.53125 335.269531 C 71.566406 297.230469 34.253906 251.617188 10.558594 195.898438 C 9.710938 193.9375 8.574219 191.972656 8.289062 190.007812 C 0.628906 146.359375 -8.023438 102.570312 16.945312 61.3125 C 53.832031 0.398438 134.277344 -17.988281 201.8125 19.207031 C 201.8125 26.222656 202.238281 33.945312 201.667969 41.523438 C 199.539062 70.851562 203.941406 98.78125 218.410156 125.167969 Z M 218.410156 125.167969 " clip-rule="nonzero"/></clipPath><clipPath id="e7ed651986"><rect x="0" width="509" y="0" height="576"/></clipPath><clipPath id="af99c0cecc"><path d="M 1114.15625 198.121094 L 1463 198.121094 L 1463 440 L 1114.15625 440 Z M 1114.15625 198.121094 " clip-rule="nonzero"/></clipPath><clipPath id="5b8dc7e7ff"><path d="M 1148.597656 331.652344 C 1149.59375 330.386719 1150.730469 329.261719 1152.007812 328.136719 C 1153.855469 323.355469 1154.566406 318.011719 1159.117188 304.9375 C 1189.535156 296.359375 1220.378906 287.78125 1251.085938 281.3125 C 1283.921875 274.28125 1324.003906 287.5 1334.097656 321.808594 C 1337.222656 332.496094 1337.792969 343.605469 1336.371094 354.851562 C 1334.808594 367.789062 1330.828125 380.730469 1325.144531 392.398438 C 1334.949219 379.320312 1342.199219 363.714844 1344.902344 347.121094 C 1346.464844 337.980469 1346.609375 328.703125 1345.1875 319.140625 C 1341.488281 291.296875 1315.761719 269.785156 1289.320312 263.03125 C 1262.882812 254.738281 1235.304688 262.472656 1209.578125 267.535156 C 1196.359375 270.488281 1183.136719 273.578125 1170.203125 277.09375 C 1170.347656 276.53125 1170.628906 276.113281 1170.773438 275.550781 C 1181.574219 250.800781 1185.554688 245.316406 1191.953125 241.097656 C 1199.484375 235.894531 1208.726562 234.210938 1217.824219 232.941406 C 1217.964844 232.941406 1218.105469 232.800781 1218.105469 232.800781 C 1220.667969 231.820312 1223.222656 230.976562 1225.925781 230.414062 C 1272.546875 219.867188 1319.027344 209.039062 1365.796875 199.617188 C 1396.214844 193.574219 1419.386719 206.226562 1437.863281 230.550781 C 1472.691406 276.113281 1468.28125 343.746094 1441.84375 381.992188 C 1424.21875 407.722656 1399.199219 422.769531 1370.0625 428.113281 C 1301.691406 440.347656 1232.460938 443.15625 1163.378906 434.582031 C 1150.871094 433.03125 1138.929688 427.128906 1127.136719 422.203125 C 1116.757812 417.847656 1113.769531 409.128906 1114.199219 398.023438 C 1115.050781 377.066406 1124.148438 362.167969 1139.359375 351.339844 C 1140.070312 345.152344 1144.902344 339.105469 1147.175781 336.152344 C 1148.597656 334.324219 1149.59375 332.78125 1150.445312 331.226562 C 1149.734375 331.375 1149.167969 331.511719 1148.597656 331.652344 Z M 1148.597656 331.652344 " clip-rule="nonzero"/></clipPath><clipPath id="ec02e28195"><path d="M 0.15625 0.121094 L 349 0.121094 L 349 241.734375 L 0.15625 241.734375 Z M 0.15625 0.121094 " clip-rule="nonzero"/></clipPath><clipPath id="13f532254a"><path d="M 34.597656 133.652344 C 35.59375 132.386719 36.730469 131.261719 38.007812 130.136719 C 39.855469 125.355469 40.566406 120.011719 45.117188 106.9375 C 75.535156 98.359375 106.378906 89.78125 137.085938 83.3125 C 169.921875 76.28125 210.003906 89.5 220.097656 123.808594 C 223.222656 134.496094 223.792969 145.605469 222.371094 156.851562 C 220.808594 169.789062 216.828125 182.730469 211.144531 194.398438 C 220.949219 181.320312 228.199219 165.714844 230.902344 149.121094 C 232.464844 139.980469 232.609375 130.703125 231.1875 121.140625 C 227.488281 93.296875 201.761719 71.785156 175.320312 65.03125 C 148.882812 56.738281 121.304688 64.472656 95.578125 69.535156 C 82.359375 72.488281 69.136719 75.578125 56.203125 79.09375 C 56.347656 78.53125 56.628906 78.113281 56.773438 77.550781 C 67.574219 52.800781 71.554688 47.316406 77.953125 43.097656 C 85.484375 37.894531 94.726562 36.210938 103.824219 34.941406 C 103.964844 34.941406 104.105469 34.800781 104.105469 34.800781 C 106.667969 33.820312 109.222656 32.976562 111.925781 32.414062 C 158.546875 21.867188 205.027344 11.039062 251.796875 1.617188 C 282.214844 -4.425781 305.386719 8.226562 323.863281 32.550781 C 358.691406 78.113281 354.28125 145.746094 327.84375 183.992188 C 310.21875 209.722656 285.199219 224.769531 256.0625 230.113281 C 187.691406 242.347656 118.460938 245.15625 49.378906 236.582031 C 36.871094 235.03125 24.929688 229.128906 13.136719 224.203125 C 2.757812 219.847656 -0.230469 211.128906 0.199219 200.023438 C 1.050781 179.066406 10.148438 164.167969 25.359375 153.339844 C 26.070312 147.152344 30.902344 141.105469 33.175781 138.152344 C 34.597656 136.324219 35.59375 134.78125 36.445312 133.226562 C 35.734375 133.375 35.167969 133.511719 34.597656 133.652344 Z M 34.597656 133.652344 " clip-rule="nonzero"/></clipPath><clipPath id="b5314c9317"><rect x="0" width="349" y="0" height="242"/></clipPath><clipPath id="d2126c9614"><path d="M 639 612 L 1309 612 L 1309 1182.464844 L 639 1182.464844 Z M 639 612 " clip-rule="nonzero"/></clipPath><clipPath id="88dd56f744"><path d="M 858.992188 668.324219 C 857.289062 669.023438 855.585938 669.730469 853.742188 670.570312 C 854.167969 671.832031 854.308594 673.238281 855.015625 674.21875 C 899 731.617188 944.261719 788.042969 1000.441406 834.214844 C 1040.453125 866.917969 1083.015625 896.527344 1124.585938 927.402344 C 1163.746094 956.738281 1203.613281 985.089844 1242.207031 1015.265625 C 1267.601562 1034.914062 1288.316406 1059.054688 1301.226562 1089.085938 C 1315.984375 1123.75 1307.042969 1153.226562 1281.082031 1182.136719 C 1283.917969 1172.597656 1286.046875 1165.578125 1289.449219 1154.070312 C 1280.796875 1162.070312 1275.832031 1166.699219 1270.722656 1171.191406 C 1262.492188 1178.488281 1253.128906 1180.03125 1243.058594 1175.398438 C 1235.964844 1172.03125 1228.726562 1168.945312 1222.339844 1164.59375 C 1201.058594 1150.28125 1180.207031 1135.683594 1159.347656 1120.945312 C 1154.664062 1117.578125 1150.410156 1113.648438 1146.722656 1109.578125 C 1131.539062 1092.738281 1136.078125 1070.699219 1156.367188 1060.175781 C 1169.28125 1053.4375 1182.332031 1054.703125 1195.8125 1058.628906 C 1228.160156 1068.316406 1253.554688 1082.488281 1291.152344 1113.085938 C 1287.464844 1097.648438 1278.242188 1088.105469 1268.453125 1079.546875 C 1246.886719 1060.878906 1222.910156 1045.582031 1195.667969 1036.035156 C 1146.433594 1018.773438 1099.613281 1044.878906 1088.410156 1095.542969 C 1087.414062 1099.472656 1086.5625 1103.40625 1085.144531 1110.421875 C 1066.273438 1101.441406 1048.964844 1093.859375 1032.226562 1084.878906 C 1017.753906 1077.300781 1004.273438 1067.894531 990.230469 1059.753906 C 961.710938 1043.050781 957.027344 1020.875 971.925781 986.636719 C 976.605469 975.96875 985.265625 966.984375 994.199219 954.074219 C 958.875 968.109375 929.082031 985.929688 900.707031 1008.242188 C 894.035156 1005.441406 887.222656 1003.472656 881.265625 999.828125 C 840.402344 975.402344 801.671875 947.898438 767.195312 914.914062 C 746.625 895.265625 737.113281 873.929688 743.644531 844.882812 C 749.601562 818.074219 754.855469 791.410156 769.039062 767.128906 C 740.238281 791.691406 715.695312 818.917969 702.214844 854.988281 C 666.746094 823.972656 635.53125 785.234375 667.171875 720.671875 C 659.792969 732.882812 652.558594 744.953125 643.476562 759.96875 C 641.632812 752.8125 639.363281 747.902344 639.21875 743.128906 C 637.800781 697.9375 654.972656 662.007812 694.414062 638.011719 C 722.929688 620.605469 754.855469 612.746094 788.050781 612.042969 C 830.191406 611.199219 848.773438 623.410156 858.992188 668.324219 Z M 858.992188 668.324219 " clip-rule="nonzero"/></clipPath><clipPath id="4cc9778335"><path d="M 0 0 L 669.523438 0 L 669.523438 570.214844 L 0 570.214844 Z M 0 0 " clip-rule="nonzero"/></clipPath><clipPath id="76a6f3107d"><path d="M 219.992188 56.324219 C 218.289062 57.023438 216.585938 57.730469 214.742188 58.570312 C 215.167969 59.832031 215.308594 61.238281 216.015625 62.21875 C 260 119.617188 305.261719 176.042969 361.441406 222.214844 C 401.453125 254.917969 444.015625 284.527344 485.585938 315.402344 C 524.746094 344.738281 564.613281 373.089844 603.207031 403.265625 C 628.601562 422.914062 649.316406 447.054688 662.226562 477.085938 C 676.984375 511.75 668.042969 541.226562 642.082031 570.136719 C 644.917969 560.597656 647.046875 553.578125 650.449219 542.070312 C 641.796875 550.070312 636.832031 554.699219 631.722656 559.191406 C 623.492188 566.488281 614.128906 568.03125 604.058594 563.398438 C 596.964844 560.03125 589.726562 556.945312 583.339844 552.59375 C 562.058594 538.28125 541.207031 523.683594 520.347656 508.945312 C 515.664062 505.578125 511.410156 501.648438 507.722656 497.578125 C 492.539062 480.738281 497.078125 458.699219 517.367188 448.175781 C 530.28125 441.4375 543.332031 442.703125 556.8125 446.628906 C 589.160156 456.316406 614.554688 470.488281 652.152344 501.085938 C 648.464844 485.648438 639.242188 476.105469 629.453125 467.546875 C 607.886719 448.878906 583.910156 433.582031 556.667969 424.035156 C 507.433594 406.773438 460.613281 432.878906 449.410156 483.542969 C 448.414062 487.472656 447.5625 491.40625 446.144531 498.421875 C 427.273438 489.441406 409.964844 481.859375 393.226562 472.878906 C 378.753906 465.300781 365.273438 455.894531 351.230469 447.753906 C 322.710938 431.050781 318.027344 408.875 332.925781 374.636719 C 337.605469 363.96875 346.265625 354.984375 355.199219 342.074219 C 319.875 356.109375 290.082031 373.929688 261.707031 396.242188 C 255.035156 393.441406 248.222656 391.472656 242.265625 387.828125 C 201.402344 363.402344 162.671875 335.898438 128.195312 302.914062 C 107.625 283.265625 98.113281 261.929688 104.644531 232.882812 C 110.601562 206.074219 115.855469 179.410156 130.039062 155.128906 C 101.238281 179.691406 76.695312 206.917969 63.214844 242.988281 C 27.746094 211.972656 -3.46875 173.234375 28.171875 108.671875 C 20.792969 120.882812 13.558594 132.953125 4.476562 147.96875 C 2.632812 140.8125 0.363281 135.902344 0.21875 131.128906 C -1.199219 85.9375 15.972656 50.007812 55.414062 26.011719 C 83.929688 8.605469 115.855469 0.746094 149.050781 0.0429688 C 191.191406 -0.800781 209.773438 11.410156 219.992188 56.324219 Z M 219.992188 56.324219 " clip-rule="nonzero"/></clipPath><clipPath id="6e5b5025f4"><rect x="0" width="670" y="0" height="571"/></clipPath><clipPath id="a272d430e2"><path d="M 503.070312 867.203125 L 1239 867.203125 L 1239 1380 L 503.070312 1380 Z M 503.070312 867.203125 " clip-rule="nonzero"/></clipPath><clipPath id="538d80ab41"><path d="M 652.011719 879.816406 C 656.125 884.730469 660.382812 889.503906 664.496094 894.417969 C 724.53125 966.296875 796.625 1024.554688 874.253906 1076.359375 C 920.800781 1107.382812 969.195312 1136.023438 1017.878906 1163.824219 C 1068.542969 1192.460938 1120.625 1218.574219 1172 1246.230469 C 1185.625 1253.667969 1199.109375 1261.8125 1211.597656 1271.074219 C 1238.988281 1291.433594 1249.347656 1338.042969 1225.644531 1367.945312 C 1226.070312 1358.820312 1226.355469 1351.9375 1226.78125 1343.65625 C 1221.671875 1351.523438 1217.414062 1358.539062 1212.730469 1365.136719 C 1203.933594 1377.351562 1192.292969 1382.261719 1177.25 1378.195312 C 1144.042969 1369.207031 1113.25 1354.75 1084.433594 1336.359375 C 1072.230469 1328.636719 1064.566406 1317.96875 1067.265625 1302.664062 C 1069.960938 1287.921875 1085.003906 1272.34375 1100.613281 1270.933594 C 1113.25 1269.816406 1126.445312 1270.65625 1138.792969 1273.1875 C 1167.175781 1279.078125 1194.140625 1289.324219 1218.125 1307.296875 C 1215.570312 1295.363281 1207.90625 1287.503906 1198.679688 1281.1875 C 1173.847656 1264.199219 1146.597656 1251.988281 1116.652344 1246.929688 C 1072.660156 1239.488281 1032.070312 1266.726562 1021.992188 1309.964844 C 1020.007812 1318.667969 1018.726562 1327.792969 1016.742188 1338.042969 C 1010.78125 1337.203125 1005.246094 1337.339844 1000.136719 1335.796875 C 971.46875 1327.230469 942.515625 1319.511719 914.5625 1309.402344 C 867.300781 1292.132812 856.65625 1251.421875 887.878906 1211.972656 C 889.582031 1209.726562 891.285156 1207.621094 891.851562 1204.113281 C 861.199219 1220.957031 833.097656 1241.457031 803.433594 1263.21875 C 774.0625 1254.230469 747.664062 1242.015625 723.253906 1226.152344 C 701.964844 1212.113281 681.53125 1196.8125 660.808594 1181.929688 C 640.371094 1167.472656 632.425781 1147.539062 634.414062 1123.105469 C 636.683594 1094.894531 642.359375 1067.65625 654.988281 1041.683594 C 627.457031 1065.972656 604.894531 1093.347656 597.371094 1132.9375 C 569.839844 1112.160156 546.566406 1091.804688 528.257812 1066.535156 C 516.476562 1050.390625 512.359375 1031.996094 515.625 1012.339844 C 517.46875 1001.390625 519.742188 990.441406 519.742188 978.789062 C 515.625 985.667969 511.511719 992.546875 506.683594 1000.550781 C 500.582031 993.949219 503.988281 986.792969 504.269531 980.476562 C 506.257812 931.339844 533.789062 899.609375 577.078125 879.957031 C 590.414062 874.0625 605.746094 872.375 620.222656 868.445312 C 633.703125 864.652344 643.636719 869.847656 652.011719 879.816406 Z M 652.011719 879.816406 " clip-rule="nonzero"/></clipPath><clipPath id="766cc02446"><path d="M 0.0703125 0.203125 L 736 0.203125 L 736 512.714844 L 0.0703125 512.714844 Z M 0.0703125 0.203125 " clip-rule="nonzero"/></clipPath><clipPath id="30adbda0ff"><path d="M 149.011719 12.816406 C 153.125 17.730469 157.382812 22.503906 161.496094 27.417969 C 221.53125 99.296875 293.625 157.554688 371.253906 209.359375 C 417.800781 240.382812 466.195312 269.023438 514.878906 296.824219 C 565.542969 325.460938 617.625 351.574219 669 379.230469 C 682.625 386.667969 696.109375 394.8125 708.597656 404.074219 C 735.988281 424.433594 746.347656 471.042969 722.644531 500.945312 C 723.070312 491.820312 723.355469 484.9375 723.78125 476.65625 C 718.671875 484.523438 714.414062 491.539062 709.730469 498.136719 C 700.933594 510.351562 689.292969 515.261719 674.25 511.195312 C 641.042969 502.207031 610.25 487.75 581.433594 469.359375 C 569.230469 461.636719 561.566406 450.96875 564.265625 435.664062 C 566.960938 420.921875 582.003906 405.34375 597.613281 403.933594 C 610.25 402.816406 623.445312 403.65625 635.792969 406.1875 C 664.175781 412.078125 691.140625 422.324219 715.125 440.296875 C 712.570312 428.363281 704.90625 420.503906 695.679688 414.1875 C 670.847656 397.199219 643.597656 384.988281 613.652344 379.929688 C 569.660156 372.488281 529.070312 399.726562 518.992188 442.964844 C 517.007812 451.667969 515.726562 460.792969 513.742188 471.042969 C 507.78125 470.203125 502.246094 470.339844 497.136719 468.796875 C 468.46875 460.230469 439.515625 452.511719 411.5625 442.402344 C 364.300781 425.132812 353.65625 384.421875 384.878906 344.972656 C 386.582031 342.726562 388.285156 340.621094 388.851562 337.113281 C 358.199219 353.957031 330.097656 374.457031 300.433594 396.21875 C 271.0625 387.230469 244.664062 375.015625 220.253906 359.152344 C 198.964844 345.113281 178.53125 329.8125 157.808594 314.929688 C 137.371094 300.472656 129.425781 280.539062 131.414062 256.105469 C 133.683594 227.894531 139.359375 200.65625 151.988281 174.683594 C 124.457031 198.972656 101.894531 226.347656 94.371094 265.9375 C 66.839844 245.160156 43.566406 224.804688 25.257812 199.535156 C 13.476562 183.390625 9.359375 164.996094 12.625 145.339844 C 14.46875 134.390625 16.742188 123.441406 16.742188 111.789062 C 12.625 118.667969 8.511719 125.546875 3.683594 133.550781 C -2.417969 126.949219 0.988281 119.792969 1.269531 113.476562 C 3.257812 64.339844 30.789062 32.609375 74.078125 12.957031 C 87.414062 7.0625 102.746094 5.375 117.222656 1.445312 C 130.703125 -2.347656 140.636719 2.847656 149.011719 12.816406 Z M 149.011719 12.816406 " clip-rule="nonzero"/></clipPath><clipPath id="1fbeeea15b"><rect x="0" width="736" y="0" height="513"/></clipPath><clipPath id="ed931ab6b6"><path d="M 895.804688 1530.242188 L 1052.351562 1530.242188 L 1052.351562 1570.433594 L 895.804688 1570.433594 Z M 895.804688 1530.242188 " clip-rule="nonzero"/></clipPath><clipPath id="8c9f63b4d2"><path d="M 1052.292969 1530.398438 C 1046.621094 1547.519531 1033.566406 1557.207031 1017.394531 1562.675781 C 1006.042969 1566.46875 993.984375 1569.132812 982.066406 1569.695312 C 958.796875 1570.816406 935.390625 1570.398438 911.976562 1570.117188 C 906.585938 1569.976562 901.195312 1568.152344 895.804688 1563.660156 C 924.605469 1561.273438 953.40625 1558.746094 982.207031 1556.359375 C 989.160156 1555.800781 996.253906 1554.957031 1003.347656 1554.539062 C 1023.210938 1553.417969 1038.390625 1543.171875 1052.292969 1530.398438 Z M 1052.292969 1530.398438 " clip-rule="nonzero"/></clipPath><clipPath id="69d22b8f63"><path d="M 0.804688 0.242188 L 157.351562 0.242188 L 157.351562 40.433594 L 0.804688 40.433594 Z M 0.804688 0.242188 " clip-rule="nonzero"/></clipPath><clipPath id="fe25613167"><path d="M 157.292969 0.398438 C 151.621094 17.519531 138.566406 27.207031 122.394531 32.675781 C 111.042969 36.46875 98.984375 39.132812 87.066406 39.695312 C 63.796875 40.816406 40.390625 40.398438 16.976562 40.117188 C 11.585938 39.976562 6.195312 38.152344 0.804688 33.660156 C 29.605469 31.273438 58.40625 28.746094 87.207031 26.359375 C 94.160156 25.800781 101.253906 24.957031 108.347656 24.539062 C 128.210938 23.417969 143.390625 13.171875 157.292969 0.398438 Z M 157.292969 0.398438 " clip-rule="nonzero"/></clipPath><clipPath id="3c8093be9f"><rect x="0" width="158" y="0" height="41"/></clipPath><clipPath id="1536a4adab"><path d="M 0.417969 0.0976562 L 2847 0.0976562 L 2847 2772.988281 L 0.417969 2772.988281 Z M 0.417969 0.0976562 " clip-rule="nonzero"/></clipPath><clipPath id="25ffab1a62"><path d="M 2706.324219 1913.789062 C 2664.71875 1938.96875 2639.445312 1956.585938 2634.929688 1979.484375 C 2631.765625 1995.523438 2644.25 2002.992188 2672.589844 2058.96875 C 2679.050781 2071.722656 2683.515625 2081.242188 2686.570312 2088.410156 C 2688.164062 2092.152344 2688.90625 2096.042969 2688.867188 2099.859375 C 2688.742188 2112.425781 2677.179688 2121.359375 2672.21875 2125.328125 C 2659.703125 2135.324219 2624.601562 2144.832031 2575.46875 2151.148438 C 2564.800781 2152.515625 2563.191406 2167.148438 2573.34375 2170.671875 C 2623.253906 2187.992188 2667.199219 2212.195312 2671.046875 2245.484375 C 2675.636719 2285.175781 2609.402344 2294.890625 2591.875 2363.789062 C 2571.980469 2442.019531 2624.5 2516.484375 2605.632812 2598.261719 C 2588.011719 2674.640625 2520.789062 2744.269531 2442.828125 2760.761719 C 2405.558594 2768.644531 2367.96875 2771.730469 2330.25 2772.988281 C 2301.636719 2742.355469 2273.46875 2712.199219 2246.199219 2681.179688 C 2186.082031 2612.796875 2144.414062 2560.886719 2134.125 2548.140625 C 2087.480469 2490.386719 2003.453125 2401.75 1839.46875 2265.503906 C 1865.855469 2326.269531 1890.398438 2382.6875 1915.507812 2440.644531 C 1912.101562 2439.378906 1910.402344 2439.378906 1909.691406 2438.539062 C 1905.71875 2434.332031 1902.03125 2430.121094 1898.34375 2425.769531 C 1854.503906 2373.003906 1812.089844 2319.253906 1774.632812 2261.578125 C 1689.089844 2130.640625 1631.066406 2024.410156 1575.597656 1900.070312 C 1574.035156 1896.558594 1573.046875 1892.632812 1571.761719 1888.984375 C 1586.09375 1900.632812 1598.152344 1913.542969 1609.929688 1926.59375 C 1621.84375 1939.644531 1633.480469 1952.976562 1645.25 1966.308594 C 1657.3125 1980.0625 1669.371094 1994.097656 1681.429688 2007.847656 C 1693.0625 2021.183594 1704.695312 2034.515625 1716.613281 2047.5625 C 1728.527344 2060.753906 1740.875 2073.527344 1752.929688 2086.4375 C 1764.84375 2099.488281 1776.90625 2112.539062 1788.820312 2125.453125 C 1801.449219 2139.0625 1814.074219 2152.394531 1826.554688 2165.867188 C 1838.476562 2178.917969 1849.824219 2192.671875 1862.167969 2205.160156 C 1873.941406 2217.09375 1882.3125 2232.246094 1896.925781 2241.367188 C 1868.695312 2193.652344 1839.46875 2147.0625 1810.101562 2100.46875 C 1784.421875 2059.910156 1758.320312 2019.496094 1732.925781 1978.796875 C 1724.414062 1965.1875 1670.082031 1884.355469 1662.132812 1869.757812 C 1718.882812 1837.902344 1770.664062 1803.660156 1816.0625 1758.191406 C 1874.222656 1830.605469 1940.621094 1903.015625 2016.800781 1973.042969 C 2025.597656 1981.183594 2034.390625 1989.042969 2043.328125 1996.902344 C 2000.628906 1924.628906 1927.566406 1820.78125 1896.640625 1745.699219 C 1906.855469 1728.160156 1923.597656 1706.6875 1949.980469 1697.003906 C 2047.164062 1661.640625 2347.078125 1983.324219 2395.457031 2039.035156 C 2395.457031 2039.035156 2156.113281 1690.40625 2089.71875 1598.488281 C 2081.777344 1587.542969 2073.832031 1576.597656 2066.171875 1565.507812 C 2114.832031 1527.476562 2146.042969 1479.484375 2167.746094 1424.75 C 2169.589844 1420.121094 2171.859375 1415.769531 2173.847656 1411.277344 C 2197.113281 1359.773438 2210.734375 1306.304688 2211.445312 1249.75 C 2211.867188 1227.019531 2215.980469 1204.984375 2224.351562 1183.65625 C 2235.980469 1154.605469 2241.234375 1124.292969 2241.800781 1092.855469 C 2243.074219 1011.601562 2206.332031 952.800781 2135.117188 913.929688 C 2129.015625 910.5625 2122.914062 907.191406 2116.816406 903.964844 C 2119.085938 887.125 2122.351562 871.96875 2122.773438 856.671875 C 2125.046875 774.011719 2072.128906 701.039062 1992.117188 675.636719 C 1982.183594 672.40625 1972.253906 668.898438 1961.617188 665.25 C 1962.75 653.742188 1963.882812 644.058594 1964.875 634.238281 C 1967.71875 602.800781 1964.734375 572.070312 1951.117188 543.441406 C 1926.574219 491.09375 1883.730469 461.0625 1827.976562 447.871094 C 1814.925781 444.785156 1801.730469 442.675781 1786.976562 439.730469 C 1786.976562 431.171875 1787.402344 423.453125 1786.835938 415.871094 C 1783.003906 355.671875 1759.738281 305.570312 1708.523438 270.203125 C 1662.5625 238.488281 1611.632812 231.753906 1557.578125 241.578125 C 1542.402344 244.382812 1527.21875 247.472656 1512.75 250.417969 C 1511.046875 247.609375 1510.050781 246.488281 1509.628906 245.226562 C 1496.859375 206.070312 1467.636719 174.636719 1429.472656 158.5 C 1369.039062 132.675781 1285.902344 148.675781 1224.90625 168.042969 C 1168.578125 185.863281 1112.96875 221.085938 1105.449219 284.101562 C 1104.316406 293.78125 1102.757812 303.464844 1101.195312 313.566406 C 1092.398438 319.183594 1084.171875 324.234375 1077.785156 328.164062 C 1057.640625 324.234375 1040.335938 319.460938 1022.738281 317.640625 C 1004.441406 315.671875 985.574219 314.691406 967.273438 316.378906 C 894.496094 323.394531 840.019531 358.058594 808.238281 424.433594 C 792.636719 457.132812 788.804688 491.933594 790.222656 527.582031 C 790.648438 536.421875 790.367188 545.402344 790.367188 553.828125 C 766.816406 558.175781 744.117188 560.5625 722.410156 566.457031 C 655.023438 584.839844 605.796875 624.132812 582.386719 690.933594 C 570.472656 725.316406 573.308594 760.402344 580.117188 795.34375 C 581.535156 802.078125 582.386719 808.8125 583.382812 815.972656 C 572.316406 820.324219 563.234375 823.972656 554.015625 827.761719 C 480.386719 857.230469 424.066406 934.976562 441.230469 1026.757812 C 445.203125 1048.089844 452.441406 1068.71875 458.257812 1089.628906 C 457.972656 1090.332031 457.828125 1091.171875 457.40625 1091.59375 C 453.007812 1096.085938 448.609375 1100.71875 444.070312 1105.066406 C 403.210938 1144.082031 384.910156 1191.933594 386.46875 1247.785156 C 388.457031 1319.5 411.300781 1383.070312 459.390625 1437.238281 C 494.71875 1477.097656 530.75 1515.828125 581.394531 1541.371094 C 575.582031 1549.933594 570.613281 1557.371094 565.363281 1564.667969 C 524.082031 1622.199219 477.976562 1676.09375 429.742188 1727.878906 C 370.722656 1791.027344 310.289062 1852.773438 250.28125 1914.949219 C 247.496094 1917.835938 244.695312 1920.707031 241.910156 1923.59375 C 76.84375 1682.40625 -101.9375 1295.125 71.214844 813.8125 C 278.683594 237.058594 851.695312 -30.308594 1400.464844 3.082031 C 1401.640625 3.210938 1402.8125 3.210938 1404.113281 3.339844 C 1432.394531 5.140625 1460.671875 7.71875 1488.953125 11.070312 C 1490.515625 11.203125 1492.078125 11.460938 1493.777344 11.714844 C 1506.023438 13.265625 1518.402344 14.9375 1530.652344 16.742188 C 1532.609375 17 1534.695312 17.261719 1536.78125 17.648438 C 1550.589844 19.714844 1564.273438 22.03125 1578.089844 24.480469 C 1578.21875 24.609375 1578.347656 24.609375 1578.484375 24.609375 C 1591.382812 26.925781 1604.285156 29.636719 1617.054688 32.34375 C 1620.183594 32.988281 1623.3125 33.632812 1626.4375 34.277344 C 1637.644531 36.722656 1648.722656 39.300781 1659.800781 42.015625 C 1661.882812 42.523438 1663.972656 42.914062 1666.054688 43.429688 C 1678.957031 46.652344 1691.730469 50.003906 1704.496094 53.613281 C 1707.363281 54.386719 1710.230469 55.292969 1713.101562 56.0625 C 1723.132812 58.898438 1733.167969 61.863281 1743.074219 64.957031 C 1746.59375 65.988281 1750.109375 67.152344 1753.628906 68.179688 C 1766.140625 72.179688 1778.648438 76.304688 1791.03125 80.558594 C 2200.742188 223.554688 2409.800781 536.507812 2510.367188 777.824219 L 2517.398438 777.824219 C 2522.054688 794.382812 2526.300781 811.285156 2530.296875 828.347656 C 2534.039062 838.398438 2537.652344 848.339844 2541.011719 858.027344 C 2575.160156 956.390625 2566.394531 1039.636719 2569.914062 1077.53125 C 2575.921875 1135.6875 2579.984375 1190.328125 2583.457031 1237.171875 C 2591.851562 1350.3125 2589.332031 1412.65625 2632.832031 1491.324219 C 2709.351562 1629.738281 2797.5 1722.207031 2797.5 1722.207031 C 2825.832031 1751.929688 2849.105469 1773.738281 2846.328125 1801.554688 C 2841.402344 1850.851562 2759.90625 1881.390625 2706.324219 1913.789062 Z M 2706.324219 1913.789062 " clip-rule="nonzero"/></clipPath><clipPath id="8372e56e87"><path d="M 0.417969 0.0976562 L 2847 0.0976562 L 2847 2772.988281 L 0.417969 2772.988281 Z M 0.417969 0.0976562 " clip-rule="nonzero"/></clipPath><clipPath id="9c98e9125a"><path d="M 2706.324219 1913.789062 C 2664.71875 1938.96875 2639.445312 1956.585938 2634.929688 1979.484375 C 2631.765625 1995.523438 2644.25 2002.992188 2672.589844 2058.96875 C 2679.050781 2071.722656 2683.515625 2081.242188 2686.570312 2088.410156 C 2688.164062 2092.152344 2688.90625 2096.042969 2688.867188 2099.859375 C 2688.742188 2112.425781 2677.179688 2121.359375 2672.21875 2125.328125 C 2659.703125 2135.324219 2624.601562 2144.832031 2575.46875 2151.148438 C 2564.800781 2152.515625 2563.191406 2167.148438 2573.34375 2170.671875 C 2623.253906 2187.992188 2667.199219 2212.195312 2671.046875 2245.484375 C 2675.636719 2285.175781 2609.402344 2294.890625 2591.875 2363.789062 C 2571.980469 2442.019531 2624.5 2516.484375 2605.632812 2598.261719 C 2588.011719 2674.640625 2520.789062 2744.269531 2442.828125 2760.761719 C 2405.558594 2768.644531 2367.96875 2771.730469 2330.25 2772.988281 C 2301.636719 2742.355469 2273.46875 2712.199219 2246.199219 2681.179688 C 2186.082031 2612.796875 2144.414062 2560.886719 2134.125 2548.140625 C 2087.480469 2490.386719 2003.453125 2401.75 1839.46875 2265.503906 C 1865.855469 2326.269531 1890.398438 2382.6875 1915.507812 2440.644531 C 1912.101562 2439.378906 1910.402344 2439.378906 1909.691406 2438.539062 C 1905.71875 2434.332031 1902.03125 2430.121094 1898.34375 2425.769531 C 1854.503906 2373.003906 1812.089844 2319.253906 1774.632812 2261.578125 C 1689.089844 2130.640625 1631.066406 2024.410156 1575.597656 1900.070312 C 1574.035156 1896.558594 1573.046875 1892.632812 1571.761719 1888.984375 C 1586.09375 1900.632812 1598.152344 1913.542969 1609.929688 1926.59375 C 1621.84375 1939.644531 1633.480469 1952.976562 1645.25 1966.308594 C 1657.3125 1980.0625 1669.371094 1994.097656 1681.429688 2007.847656 C 1693.0625 2021.183594 1704.695312 2034.515625 1716.613281 2047.5625 C 1728.527344 2060.753906 1740.875 2073.527344 1752.929688 2086.4375 C 1764.84375 2099.488281 1776.90625 2112.539062 1788.820312 2125.453125 C 1801.449219 2139.0625 1814.074219 2152.394531 1826.554688 2165.867188 C 1838.476562 2178.917969 1849.824219 2192.671875 1862.167969 2205.160156 C 1873.941406 2217.09375 1882.3125 2232.246094 1896.925781 2241.367188 C 1868.695312 2193.652344 1839.46875 2147.0625 1810.101562 2100.46875 C 1784.421875 2059.910156 1758.320312 2019.496094 1732.925781 1978.796875 C 1724.414062 1965.1875 1670.082031 1884.355469 1662.132812 1869.757812 C 1718.882812 1837.902344 1770.664062 1803.660156 1816.0625 1758.191406 C 1874.222656 1830.605469 1940.621094 1903.015625 2016.800781 1973.042969 C 2025.597656 1981.183594 2034.390625 1989.042969 2043.328125 1996.902344 C 2000.628906 1924.628906 1927.566406 1820.78125 1896.640625 1745.699219 C 1906.855469 1728.160156 1923.597656 1706.6875 1949.980469 1697.003906 C 2047.164062 1661.640625 2347.078125 1983.324219 2395.457031 2039.035156 C 2395.457031 2039.035156 2156.113281 1690.40625 2089.71875 1598.488281 C 2081.777344 1587.542969 2073.832031 1576.597656 2066.171875 1565.507812 C 2114.832031 1527.476562 2146.042969 1479.484375 2167.746094 1424.75 C 2169.589844 1420.121094 2171.859375 1415.769531 2173.847656 1411.277344 C 2197.113281 1359.773438 2210.734375 1306.304688 2211.445312 1249.75 C 2211.867188 1227.019531 2215.980469 1204.984375 2224.351562 1183.65625 C 2235.980469 1154.605469 2241.234375 1124.292969 2241.800781 1092.855469 C 2243.074219 1011.601562 2206.332031 952.800781 2135.117188 913.929688 C 2129.015625 910.5625 2122.914062 907.191406 2116.816406 903.964844 C 2119.085938 887.125 2122.351562 871.96875 2122.773438 856.671875 C 2125.046875 774.011719 2072.128906 701.039062 1992.117188 675.636719 C 1982.183594 672.40625 1972.253906 668.898438 1961.617188 665.25 C 1962.75 653.742188 1963.882812 644.058594 1964.875 634.238281 C 1967.71875 602.800781 1964.734375 572.070312 1951.117188 543.441406 C 1926.574219 491.09375 1883.730469 461.0625 1827.976562 447.871094 C 1814.925781 444.785156 1801.730469 442.675781 1786.976562 439.730469 C 1786.976562 431.171875 1787.402344 423.453125 1786.835938 415.871094 C 1783.003906 355.671875 1759.738281 305.570312 1708.523438 270.203125 C 1662.5625 238.488281 1611.632812 231.753906 1557.578125 241.578125 C 1542.402344 244.382812 1527.21875 247.472656 1512.75 250.417969 C 1511.046875 247.609375 1510.050781 246.488281 1509.628906 245.226562 C 1496.859375 206.070312 1467.636719 174.636719 1429.472656 158.5 C 1369.039062 132.675781 1285.902344 148.675781 1224.90625 168.042969 C 1168.578125 185.863281 1112.96875 221.085938 1105.449219 284.101562 C 1104.316406 293.78125 1102.757812 303.464844 1101.195312 313.566406 C 1092.398438 319.183594 1084.171875 324.234375 1077.785156 328.164062 C 1057.640625 324.234375 1040.335938 319.460938 1022.738281 317.640625 C 1004.441406 315.671875 985.574219 314.691406 967.273438 316.378906 C 894.496094 323.394531 840.019531 358.058594 808.238281 424.433594 C 792.636719 457.132812 788.804688 491.933594 790.222656 527.582031 C 790.648438 536.421875 790.367188 545.402344 790.367188 553.828125 C 766.816406 558.175781 744.117188 560.5625 722.410156 566.457031 C 655.023438 584.839844 605.796875 624.132812 582.386719 690.933594 C 570.472656 725.316406 573.308594 760.402344 580.117188 795.34375 C 581.535156 802.078125 582.386719 808.8125 583.382812 815.972656 C 572.316406 820.324219 563.234375 823.972656 554.015625 827.761719 C 480.386719 857.230469 424.066406 934.976562 441.230469 1026.757812 C 445.203125 1048.089844 452.441406 1068.71875 458.257812 1089.628906 C 457.972656 1090.332031 457.828125 1091.171875 457.40625 1091.59375 C 453.007812 1096.085938 448.609375 1100.71875 444.070312 1105.066406 C 403.210938 1144.082031 384.910156 1191.933594 386.46875 1247.785156 C 388.457031 1319.5 411.300781 1383.070312 459.390625 1437.238281 C 494.71875 1477.097656 530.75 1515.828125 581.394531 1541.371094 C 575.582031 1549.933594 570.613281 1557.371094 565.363281 1564.667969 C 524.082031 1622.199219 477.976562 1676.09375 429.742188 1727.878906 C 370.722656 1791.027344 310.289062 1852.773438 250.28125 1914.949219 C 247.496094 1917.835938 244.695312 1920.707031 241.910156 1923.59375 C 76.84375 1682.40625 -101.9375 1295.125 71.214844 813.8125 C 278.683594 237.058594 851.695312 -30.308594 1400.464844 3.082031 C 1401.640625 3.210938 1402.8125 3.210938 1404.113281 3.339844 C 1432.394531 5.140625 1460.671875 7.71875 1488.953125 11.070312 C 1490.515625 11.203125 1492.078125 11.460938 1493.777344 11.714844 C 1506.023438 13.265625 1518.402344 14.9375 1530.652344 16.742188 C 1532.609375 17 1534.695312 17.261719 1536.78125 17.648438 C 1550.589844 19.714844 1564.273438 22.03125 1578.089844 24.480469 C 1578.21875 24.609375 1578.347656 24.609375 1578.484375 24.609375 C 1591.382812 26.925781 1604.285156 29.636719 1617.054688 32.34375 C 1620.183594 32.988281 1623.3125 33.632812 1626.4375 34.277344 C 1637.644531 36.722656 1648.722656 39.300781 1659.800781 42.015625 C 1661.882812 42.523438 1663.972656 42.914062 1666.054688 43.429688 C 1678.957031 46.652344 1691.730469 50.003906 1704.496094 53.613281 C 1707.363281 54.386719 1710.230469 55.292969 1713.101562 56.0625 C 1723.132812 58.898438 1733.167969 61.863281 1743.074219 64.957031 C 1746.59375 65.988281 1750.109375 67.152344 1753.628906 68.179688 C 1766.140625 72.179688 1778.648438 76.304688 1791.03125 80.558594 C 2200.742188 223.554688 2409.800781 536.507812 2510.367188 777.824219 L 2517.398438 777.824219 C 2522.054688 794.382812 2526.300781 811.285156 2530.296875 828.347656 C 2534.039062 838.398438 2537.652344 848.339844 2541.011719 858.027344 C 2575.160156 956.390625 2566.394531 1039.636719 2569.914062 1077.53125 C 2575.921875 1135.6875 2579.984375 1190.328125 2583.457031 1237.171875 C 2591.851562 1350.3125 2589.332031 1412.65625 2632.832031 1491.324219 C 2709.351562 1629.738281 2797.5 1722.207031 2797.5 1722.207031 C 2825.832031 1751.929688 2849.105469 1773.738281 2846.328125 1801.554688 C 2841.402344 1850.851562 2759.90625 1881.390625 2706.324219 1913.789062 Z M 2706.324219 1913.789062 " clip-rule="nonzero"/></clipPath><clipPath id="bb43d5c879"><rect x="0" width="2847" y="0" height="2773"/></clipPath><clipPath id="a524807b8a"><rect x="0" width="2848" y="0" height="2774"/></clipPath></defs><g transform="matrix(1, 0, 0, 1, 989, 70)"><g clip-path="url(#a524807b8a)"><g clip-path="url(#34172a4664)"><g clip-path="url(#939bdb0e5f)"><g transform="matrix(1, 0, 0, 1, 272, 291)"><g clip-path="url(#93b7381490)"><g clip-path="url(#63228f8718)"><g clip-path="url(#791bca249c)"><path fill="#32f5ff" d="M 0.476562 0.140625 L 1906.265625 0.140625 L 1906.265625 2414.632812 L 0.476562 2414.632812 Z M 0.476562 0.140625 " fill-opacity="1" fill-rule="nonzero"/></g></g></g></g></g></g><g clip-path="url(#2b9ea45805)"><g clip-path="url(#f9b65b4151)"><g transform="matrix(1, 0, 0, 1, 446, 1131)"><g clip-path="url(#12e4775ca5)"><g clip-path="url(#3d4f307270)"><g clip-path="url(#9a3910461a)"><path fill="#32f5ff" d="M 0.707031 0.210938 L 621.527344 0.210938 L 621.527344 402.511719 L 0.707031 402.511719 Z M 0.707031 0.210938 " fill-opacity="1" fill-rule="nonzero"/></g></g></g></g></g></g><g clip-path="url(#dded125d10)"><g clip-path="url(#2607251474)"><g transform="matrix(1, 0, 0, 1, 855, 370)"><g clip-path="url(#e7ed651986)"><g clip-path="url(#21953d9250)"><g clip-path="url(#99afe8ad24)"><path fill="#32f5ff" d="M 0.382812 0.0195312 L 508.695312 0.0195312 L 508.695312 575.988281 L 0.382812 575.988281 Z M 0.382812 0.0195312 " fill-opacity="1" fill-rule="nonzero"/></g></g></g></g></g></g><g clip-path="url(#af99c0cecc)"><g clip-path="url(#5b8dc7e7ff)"><g transform="matrix(1, 0, 0, 1, 1114, 198)"><g clip-path="url(#b5314c9317)"><g clip-path="url(#ec02e28195)"><g clip-path="url(#13f532254a)"><path fill="#32f5ff" d="M 0.15625 0.121094 L 348.5625 0.121094 L 348.5625 241.535156 L 0.15625 241.535156 Z M 0.15625 0.121094 " fill-opacity="1" fill-rule="nonzero"/></g></g></g></g></g></g><g clip-path="url(#d2126c9614)"><g clip-path="url(#88dd56f744)"><g transform="matrix(1, 0, 0, 1, 639, 612)"><g clip-path="url(#6e5b5025f4)"><g clip-path="url(#4cc9778335)"><g clip-path="url(#76a6f3107d)"><path fill="#32f5ff" d="M 0.140625 0.00390625 L 669.335938 0.00390625 L 669.335938 570.464844 L 0.140625 570.464844 Z M 0.140625 0.00390625 " fill-opacity="1" fill-rule="nonzero"/></g></g></g></g></g></g><g clip-path="url(#a272d430e2)"><g clip-path="url(#538d80ab41)"><g transform="matrix(1, 0, 0, 1, 503, 867)"><g clip-path="url(#1fbeeea15b)"><g clip-path="url(#766cc02446)"><g clip-path="url(#30adbda0ff)"><path fill="#32f5ff" d="M 0.0703125 0.203125 L 735.722656 0.203125 L 735.722656 512.597656 L 0.0703125 512.597656 Z M 0.0703125 0.203125 " fill-opacity="1" fill-rule="nonzero"/></g></g></g></g></g></g><g clip-path="url(#ed931ab6b6)"><g clip-path="url(#8c9f63b4d2)"><g transform="matrix(1, 0, 0, 1, 895, 1530)"><g clip-path="url(#3c8093be9f)"><g clip-path="url(#69d22b8f63)"><g clip-path="url(#fe25613167)"><path fill="#32f5ff" d="M 0.804688 0.398438 L 157.351562 0.398438 L 157.351562 40.433594 L 0.804688 40.433594 Z M 0.804688 0.398438 " fill-opacity="1" fill-rule="nonzero"/></g></g></g></g></g></g><g clip-path="url(#1536a4adab)"><g clip-path="url(#25ffab1a62)"><g transform="matrix(1, 0, 0, 1, -0.000000000000227374, -0.000000000000554223)"><g clip-path="url(#bb43d5c879)"><g clip-path="url(#8372e56e87)"><g clip-path="url(#9c98e9125a)"><path fill="#32f5ff" d="M 0.449219 0.304688 L 2846.339844 0.304688 L 2846.339844 2772.988281 L 0.449219 2772.988281 Z M 0.449219 0.304688 " fill-opacity="1" fill-rule="nonzero"/></g></g></g></g></g></g></g></g></svg>